<svg width="22" height="14" viewBox="0 0 22 14" fill="none" xmlns="http://www.w3.org/2000/svg">
<path d="M13.8065 2.28125H8.08008V12.5718H13.8065V2.28125Z" fill="#FF5F00"/>
<path d="M8.44469 7.42733C8.44378 6.43627 8.66836 5.458 9.10143 4.56656C9.53449 3.67513 10.1647 2.89391 10.9443 2.28203C9.97886 1.52317 8.81938 1.05124 7.5984 0.92019C6.37742 0.789141 5.1442 1.00425 4.03969 1.54095C2.93519 2.07765 2.00396 2.91427 1.35246 3.95519C0.70096 4.99612 0.355469 6.19934 0.355469 7.42733C0.355469 8.65533 0.70096 9.85855 1.35246 10.8995C2.00396 11.9404 2.93519 12.777 4.03969 13.3137C5.1442 13.8504 6.37742 14.0655 7.5984 13.9345C8.81938 13.8034 9.97886 13.3315 10.9443 12.5726C10.1647 11.9607 9.5345 11.1795 9.10144 10.2881C8.66838 9.39666 8.44379 8.41839 8.44469 7.42733Z" fill="#EB001B"/>
<path d="M21.5338 7.42733C21.5339 8.65531 21.1884 9.85852 20.537 10.8994C19.8855 11.9404 18.9543 12.777 17.8498 13.3137C16.7453 13.8504 15.5121 14.0655 14.2912 13.9345C13.0702 13.8034 11.9107 13.3315 10.9453 12.5726C11.7242 11.9601 12.354 11.1788 12.7869 10.2875C13.2199 9.3962 13.4449 8.41823 13.4449 7.42733C13.4449 6.43643 13.2199 5.45846 12.7869 4.56717C12.354 3.67587 11.7242 2.89452 10.9453 2.28203C11.9107 1.52316 13.0702 1.05124 14.2912 0.920188C15.5121 0.789141 16.7453 1.00426 17.8498 1.54097C18.9543 2.07767 19.8855 2.91429 20.537 3.95522C21.1884 4.99614 21.5339 6.19935 21.5338 7.42733Z" fill="#F79E1B"/>
<path d="M20.9086 11.4827V11.2721H20.9936V11.2291H20.7772V11.2721H20.8622V11.4827H20.9086ZM21.3287 11.4827V11.2287H21.2623L21.1861 11.4034L21.1098 11.2287H21.0434V11.4827H21.0902V11.2911L21.1618 11.4563H21.2103L21.2819 11.2907V11.4827H21.3287Z" fill="#F79E1B"/>
</svg>
